PathFileType	4	(X/Y/Z)	C:\Users\WrightLab\Desktop\Jo\P2_Trial34.trc
DataRate	CameraRate	NumFrames	NumMarkers	Units	OrigDataRate	OrigDataStartFrame	OrigNumFrames
100.00	100.00	       82	19	mm	100.00	1	       663
Frame#	Time	Headset_Front			Headset_Back			Headset_Left			Headset_Right			Left_Shoulder			Right_Shoulder			Sternum			C7			Left Elbow			Right Elbow			Left Wrist			Right Wrist			Left ASIS			Right ASIS			S2			Left Knee			Right Knee			Left Ankle			Right Ankle			
		X1	Y1	Z1	X2	Y2	Z2	X3	Y3	Z3	X4	Y4	Z4	X5	Y5	Z5	X6	Y6	Z6	X7	Y7	Z7	X8	Y8	Z8	X9	Y9	Z9	X10	Y10	Z10	X11	Y11	Z11	X12	Y12	Z12	X13	Y13	Z13	X14	Y14	Z14	X15	Y15	Z15	X16	Y16	Z16	X17	Y17	Z17	X18	Y18	Z18	X19	Y19	Z19	

1	0.000																																														-34.86905	422.45639	-1619.77563										
2	0.010																																														-33.79617	422.67090	-1620.36719										
3	0.020																																														-30.44004	423.02707	-1622.03174										
4	0.030																																														-28.66260	422.84753	-1621.51050										
5	0.040																																														-27.52775	423.23047	-1621.90747										
6	0.050																																														-24.04838	423.82376	-1623.53455										
7	0.060																																														-21.65149	424.48917	-1624.21558										
8	0.070																																														-19.01807	424.88754	-1625.18286										
9	0.080																																														-15.77512	425.47986	-1627.17297										
10	0.090																																														-13.94113	425.24426	-1626.85034										
11	0.100																																														-9.87756	424.89908	-1627.79236										
12	0.110																																														-7.58066	425.67764	-1628.55261										
13	0.120																																														-4.67607	424.77438	-1629.30481										
14	0.130																																														-1.49210	424.58069	-1630.13013										
15	0.140																																														-0.33940	424.18988	-1629.38037										
16	0.150																																														3.85067	423.10318	-1630.69360										
17	0.160																																														6.21656	423.99741	-1633.39722										
18	0.170																																														8.79649	424.52817	-1634.66235										
19	0.180																																														12.15289	423.76608	-1636.29163										
20	0.190																																														13.66180	424.31613	-1637.99890										
21	0.200																																														15.82946	424.19519	-1639.32019										
22	0.210																																														18.49486	423.59503	-1642.07947										
23	0.220																																														19.38319	422.51443	-1641.82849										
24	0.230																																														21.18809	423.41898	-1644.10779										
25	0.240																																														23.75414	422.84781	-1646.39465										
26	0.250																																														24.81468	422.32928	-1647.66846										
27	0.260																																														26.02654	423.53836	-1650.88745										
28	0.270																																														27.14783	423.50754	-1652.90845										
29	0.280																																														28.42475	423.08502	-1653.74829										
30	0.290																																														29.20272	422.59842	-1655.45923										
31	0.300																																														30.57893	422.18683	-1656.66797										
32	0.310																																														30.82717	421.70129	-1657.51611										
33	0.320																																														31.82710	421.26309	-1659.05603										
34	0.330																																														32.76404	422.06464	-1660.60901										
35	0.340																																														33.88447	423.06454	-1662.91040										
36	0.350																																														33.89806	422.71063	-1663.76990										
37	0.360																																														33.81222	422.63147	-1664.08838										
38	0.370																																														33.89877	422.49771	-1664.29773										
39	0.380																																														33.78053	422.25488	-1665.06860										
40	0.390																																														33.59465	422.21924	-1665.42126										
41	0.400																																														33.59374	422.15012	-1665.59424										
42	0.410																																														33.54168	422.11154	-1665.76404										
43	0.420																																														33.48868	422.00388	-1666.10657										
44	0.430																																														32.62233	420.64063	-1664.34131										
45	0.440																																														32.46421	420.67709	-1664.47595										
46	0.450																																														31.30220	420.48856	-1664.21912										
47	0.460																																														31.10725	420.41742	-1664.67297										
48	0.470																																														30.94725	420.41693	-1664.90222										
49	0.480																																														30.81260	420.34036	-1665.28394										
50	0.490																																														30.40456	420.81235	-1665.67053										
51	0.500																																														30.38868	420.88181	-1665.52100										
52	0.510																																														29.66533	419.86212	-1665.12500										
53	0.520																																														29.66533	419.86212	-1665.12500										
54	0.530																																														29.66533	419.86212	-1665.12500										
55	0.540																																														29.61889	419.81125	-1665.31714										
56	0.550																																														29.59838	419.74704	-1665.50537										
57	0.560																																														29.63808	419.67358	-1665.63098										
58	0.570																																														29.92948	418.93399	-1665.64709										
59	0.580																																														30.06889	418.77377	-1665.84583										
60	0.590																																														30.37154	419.71713	-1666.82605										
61	0.600																																														30.42607	419.75598	-1666.65234										
62	0.610																																														30.50626	419.79367	-1666.44507										
63	0.620																																														30.20378	418.85040	-1665.46436										
64	0.630																																														30.18722	419.05817	-1664.97314										
65	0.640																																														30.00957	419.25101	-1664.74805										
66	0.650																																														30.00957	419.25101	-1664.74805										
67	0.660																																														29.97223	419.46628	-1664.26794										
68	0.670																																														28.81856	420.21515	-1663.62573										
69	0.680																																														27.75294	420.11111	-1662.06421										
70	0.690																																														26.96800	419.71136	-1660.83740										
71	0.700																																														26.02410	419.91006	-1659.85864										
72	0.710																																														24.94152	419.92316	-1659.02075										
73	0.720																																														24.53535	420.36957	-1658.49768										
74	0.730																																														23.12176	419.21701	-1656.24988										
75	0.740																																														21.70608	419.58737	-1655.08533										
76	0.750																																														21.49255	420.07172	-1654.19775										
77	0.760																																														20.11706	420.41757	-1653.03503										
78	0.770																																														18.25192	419.62665	-1650.55383										
79	0.780																																														17.21239	419.89359	-1649.66675										
80	0.790																																														16.21426	420.24347	-1647.77295										
81	0.800																																														13.24199	420.10687	-1645.21924										
82	0.810																																		-377.87234	1035.52393	-1605.59204										12.75609	420.64386	-1644.60474										
